<svg width="166" height="23" viewBox="0 0 166 23" fill="none" xmlns="http://www.w3.org/2000/svg">
<path d="M23.7072 22.1398L29.9116 0.3592H24.6869L20.8989 16.0987L16.7844 0.3592H13.1598L9.01266 16.0987L5.19208 0.3592H0L6.23702 22.1398H11.1679L14.9558 7.18401L18.7764 22.1398H23.7072Z" fill="white"/>
<path d="M46.6777 22.5317C53.2739 22.5317 58.0741 17.8294 58.0741 11.2658C58.0741 4.70226 53.2739 0 46.6777 0C40.1141 0 35.3139 4.70226 35.3139 11.2658C35.3139 17.8294 40.1141 22.5317 46.6777 22.5317ZM46.6777 18.4172C42.6612 18.4172 40.0814 15.315 40.0814 11.2658C40.0814 7.18401 42.6612 4.11448 46.6777 4.11448C50.6942 4.11448 53.3065 7.18401 53.3065 11.2658C53.3065 15.315 50.6942 18.4172 46.6777 18.4172Z" fill="white"/>
<path d="M76.5451 22.5317C83.1413 22.5317 87.9415 17.8294 87.9415 11.2658C87.9415 4.70226 83.1413 0 76.5451 0C69.9815 0 65.1813 4.70226 65.1813 11.2658C65.1813 17.8294 69.9815 22.5317 76.5451 22.5317ZM76.5451 18.4172C72.5286 18.4172 69.9489 15.315 69.9489 11.2658C69.9489 7.18401 72.5286 4.11448 76.5451 4.11448C80.5616 4.11448 83.174 7.18401 83.174 11.2658C83.174 15.315 80.5616 18.4172 76.5451 18.4172Z" fill="white"/>
<path d="M104.682 22.1398C111.507 22.1398 116.242 17.8294 116.242 11.2658C116.242 4.70226 111.507 0.3592 104.682 0.3592H96.0937V22.1398H104.682ZM104.682 18.058H100.731V4.44102H104.682C109.156 4.44102 111.507 7.41259 111.507 11.2658C111.507 14.9558 108.992 18.058 104.682 18.058Z" fill="white"/>
<path d="M139.843 22.1398V18.058H129.067V13.1271H139.615V9.04532H129.067V4.44102H139.843V0.3592H124.43V22.1398H139.843Z" fill="white"/>
<path d="M166 22.1398L161.102 13.8455C163.453 13.2904 165.869 11.2332 165.869 7.37993C165.869 3.33077 163.094 0.3592 158.555 0.3592H148.367V22.1398H153.003V14.4007H156.4L160.677 22.1398H166ZM157.869 10.3188H153.003V4.44102H157.869C159.73 4.44102 161.134 5.55128 161.134 7.37993C161.134 9.20859 159.73 10.3188 157.869 10.3188Z" fill="white"/>
<path d="M35.6294 9.24976H87.6189V12.6871H35.6294V9.24976Z" fill="#BEA67C"/>
</svg>
