<svg width="16" height="24" viewBox="0 0 16 24" fill="none" xmlns="http://www.w3.org/2000/svg">
<path d="M8 4.5C8.19891 4.5 8.38968 4.57902 8.53033 4.71967C8.67098 4.86032 8.75 5.05109 8.75 5.25V8.25C8.75 8.44891 8.67098 8.63968 8.53033 8.78033C8.38968 8.92098 8.19891 9 8 9C7.80109 9 7.61032 8.92098 7.46967 8.78033C7.32902 8.63968 7.25 8.44891 7.25 8.25V5.25C7.25 5.05109 7.32902 4.86032 7.46967 4.71967C7.61032 4.57902 7.80109 4.5 8 4.5ZM14 16.5C14 18.0913 13.3679 19.6174 12.2426 20.7426C11.1174 21.8679 9.5913 22.5 8 22.5C6.4087 22.5 4.88258 21.8679 3.75736 20.7426C2.63214 19.6174 2 18.0913 2 16.5V7.5C2 5.9087 2.63214 4.38258 3.75736 3.25736C4.88258 2.13214 6.4087 1.5 8 1.5C9.5913 1.5 11.1174 2.13214 12.2426 3.25736C13.3679 4.38258 14 5.9087 14 7.5V16.5ZM8 0C6.01088 0 4.10322 0.790176 2.6967 2.1967C1.29018 3.60322 0.5 5.51088 0.5 7.5V16.5C0.5 18.4891 1.29018 20.3968 2.6967 21.8033C4.10322 23.2098 6.01088 24 8 24C9.98912 24 11.8968 23.2098 13.3033 21.8033C14.7098 20.3968 15.5 18.4891 15.5 16.5V7.5C15.5 5.51088 14.7098 3.60322 13.3033 2.1967C11.8968 0.790176 9.98912 0 8 0Z" fill="white"/>
</svg>
